<?xml version="1.0"?>
<svg xmlns="http://www.w3.org/2000/svg" id="Layer_1" data-name="Layer 1" viewBox="0 0 128 128" width="512" height="512"><title>CANDY WRAP</title><path d="M55.583,47.917a1.246,1.246,0,0,0,.884-.366l.25-.25a1.25,1.25,0,1,0-1.768-1.768l-.25.25a1.25,1.25,0,0,0,.884,2.134Z"/><path d="M104.717,40.828a1.25,1.25,0,0,0-1.042-.786l-4.69-.457.277-3.931A1.25,1.25,0,0,0,98.2,34.331l-3.933-.6-.6-3.933a1.247,1.247,0,0,0-1.323-1.058l-3.931.277-.457-4.691a1.25,1.25,0,0,0-2.071-.816A33.165,33.165,0,0,0,75.416,40.039,11.26,11.26,0,0,0,60,40.485l-1.422,1.423a1.25,1.25,0,0,0,1.769,1.768l1.422-1.423a8.754,8.754,0,0,1,12.378,0l11.6,11.6a8.753,8.753,0,0,1,0,12.378L66.235,85.747a8.754,8.754,0,0,1-12.378,0l-11.6-11.6a8.753,8.753,0,0,1,0-12.378L53.425,50.592a1.25,1.25,0,1,0-1.768-1.768L40.485,60a11.265,11.265,0,0,0,0,15.913L50.5,85.923a29.916,29.916,0,0,1-8.216,14.97l-.327-3.362a1.252,1.252,0,0,0-1.332-1.126l-4,.281-.567-3.7a1.248,1.248,0,0,0-1.046-1.046l-3.7-.567.282-4a1.25,1.25,0,0,0-1.126-1.332l-3.361-.327a31.039,31.039,0,0,1,10.275-6.793,1.25,1.25,0,1,0-.929-2.32,34.11,34.11,0,0,0-12.946,9.282,1.25,1.25,0,0,0,.816,2.071l4.69.457-.277,3.931A1.25,1.25,0,0,0,29.8,93.669l3.933.6.6,3.933a1.251,1.251,0,0,0,1.323,1.058l3.931-.277.456,4.691a1.25,1.25,0,0,0,2.071.816A33.165,33.165,0,0,0,52.584,87.962,11.239,11.239,0,0,0,68,87.515L87.515,68a11.265,11.265,0,0,0,0-15.913L77.5,42.077a29.916,29.916,0,0,1,8.216-14.97l.327,3.362a1.253,1.253,0,0,0,1.332,1.126l4-.281.567,3.7a1.248,1.248,0,0,0,1.046,1.046l3.7.567-.282,4a1.25,1.25,0,0,0,1.126,1.332l3.361.327A31.118,31.118,0,0,1,90.9,48.959a1.25,1.25,0,1,0,.953,2.31,34.2,34.2,0,0,0,12.635-9.156A1.251,1.251,0,0,0,104.717,40.828Z"/><path d="M49.208,64.083A4.792,4.792,0,1,0,54,68.875,4.8,4.8,0,0,0,49.208,64.083Zm0,7.084A2.292,2.292,0,1,1,51.5,68.875,2.295,2.295,0,0,1,49.208,71.167Z"/><path d="M67.041,48.458a6.917,6.917,0,1,0,6.917,6.917A6.924,6.924,0,0,0,67.041,48.458Zm0,11.334a4.417,4.417,0,1,1,4.417-4.417A4.422,4.422,0,0,1,67.041,59.792Z"/><path d="M71.4,70.125a1.25,1.25,0,1,0,0-2.5,3.771,3.771,0,1,0,3.77,3.77,1.25,1.25,0,1,0-2.5,0,1.271,1.271,0,1,1-1.27-1.27Z"/></svg>
