<svg id="Layer_1" enable-background="new 0 0 513.128 513.128" height="512" viewBox="0 0 513.128 513.128" width="512" xmlns="http://www.w3.org/2000/svg"><path d="m391.385 217.656c-10.809-26.783-14.962-34.042-14.962-48.729v-152.927c0-8.837-7.163-16-16-16h-95.855c-8.837 0-16 7.163-16 16l-.434 155.65c-.152 30.964-29.471 56.489-33.682 132.706-21.945-13.261-50.668-10.771-73.472 2.394-35.968 20.767-47.766 60.26-31.935 87.683 11.416 19.773 34.285 29.141 57.916 27.081-13.888 57.413 33.208 107.924 79.35 86.65 6.878 3.117 14.501 4.869 22.531 4.869h87.306c30.229 0 54.821-24.593 54.821-54.821v-139.704c.001-34.72-6.588-68.652-19.584-100.852zm-110.818-185.656h63.855v34.83h-63.855zm-8.891 386.151c-21.305-21.307-18.86-53.834 8.238-53.834 21.05 0 42.86 19.964 45.377 41.665 3.481 30.059-30.759 35.025-53.615 12.169zm-116.819-28.751c-29.913-4.409-25.833-38.797 2.122-54.938 16.588-9.577 39.849-9.975 48.189 4.472 12.293 21.291-18.909 55.114-50.311 50.466zm41.741 52.135c0-21.829 13.777-41.648 30.598-39.309 3.772 16.261 13.01 30.764 25.275 41.772-.937 20.314-13.33 37.034-27.905 37.034-15.161 0-27.968-18.088-27.968-39.497zm182.372 16.676c0 12.584-10.237 22.821-22.821 22.821h-81.519c3.391-6.12 5.955-12.809 7.623-19.851 65.259 20.446 102.299-54.517 51.602-105.21-20.183-20.183-50.538-30.046-76.375-19.201 4.624-11.791 13.065-26.017 28.42-40.083 6.516-5.969 6.959-16.089.99-22.605-5.968-6.517-16.089-6.96-22.605-.99-6.383 5.847-11.847 11.754-16.537 17.61 4.279-35.338 13.804-55.995 25.461-84.325 9.026-21.931 6.913-32.269 7.279-107.547h63.934c0 96.665-3.426 79.476 17.288 130.803 11.452 28.376 17.259 58.278 17.259 88.875v139.703z"/></svg>