<svg height="456pt" viewBox="-5 0 456 456.00006" width="456pt" xmlns="http://www.w3.org/2000/svg"><path d="m223.0625 280c-4.417969 0-8 3.582031-8 8v128c0 4.417969 3.582031 8 8 8s8-3.582031 8-8v-128c0-4.417969-3.582031-8-8-8zm0 0"/><path d="m319.0625 280c-4.417969 0-8 3.582031-8 8v128c0 4.417969 3.582031 8 8 8s8-3.582031 8-8v-128c0-4.417969-3.582031-8-8-8zm0 0"/><path d="m223.0625 112c-35.34375 0-64 28.652344-64 64s28.65625 64 64 64c35.347656 0 64-28.652344 64-64-.039062-35.328125-28.667969-63.960938-64-64zm48 64c0 4.417969-3.582031 8-8 8h-32v32c0 4.417969-3.582031 8-8 8s-8-3.582031-8-8v-32h-32c-4.417969 0-8-3.582031-8-8s3.582031-8 8-8h32v-32c0-4.417969 3.582031-8 8-8s8 3.582031 8 8v32h32c4.417969 0 8 3.582031 8 8zm0 0"/><path d="m127.0625 280c-4.417969 0-8 3.582031-8 8v128c0 4.417969 3.582031 8 8 8s8-3.582031 8-8v-128c0-4.417969-3.582031-8-8-8zm0 0"/><path d="m422.929688 184c.042968-.722656-.007813-1.449219-.160157-2.160156l-34.402343-122.527344c-9.238282-30.359375-37.171876-51.160156-68.902344-51.3125h-34.617188c-2.835937-4.933594-8.089844-7.984375-13.785156-8h-96c-5.691406.015625-10.945312 3.066406-13.78125 8h-34.617188c-31.792968.148438-59.769531 21.011719-68.984374 51.441406l-34.320313 122.398438c-.152344.710937-.207031 1.4375-.160156 2.160156h-23.199219l18.398438 165.28125c6.699218 60.773438 58.074218 106.765625 119.21875 106.71875h170.886718c61.160156.0625 112.554688-45.9375 119.25-106.726562l18.375-165.273438zm-271.867188 232c0 13.253906-10.742188 24-24 24-13.253906 0-24-10.746094-24-24v-128c0-13.253906 10.746094-24 24-24 13.257812 0 24 10.746094 24 24zm96 0c0 13.253906-10.742188 24-24 24-13.253906 0-24-10.746094-24-24v-128c0-13.253906 10.746094-24 24-24 13.257812 0 24 10.746094 24 24zm96 0c0 13.253906-10.742188 24-24 24-13.253906 0-24-10.746094-24-24v-128c0-13.253906 10.746094-24 24-24 13.257812 0 24 10.746094 24 24zm-40.398438-232v.070312c-.0625.617188-.191406 1.210938-.273437 1.824219-.238281 1.976563-.511719 3.953125-.894531 5.890625-.191406.941406-.464844 1.863282-.695313 2.800782-.367187 1.597656-.730469 3.125-1.191406 4.644531-.3125 1.015625-.6875 1.992187-1.042969 2.984375-.488281 1.402344-.964844 2.808594-1.527344 4.175781-.414062 1.007813-.894531 1.984375-1.351562 2.976563-.597656 1.296874-1.191406 2.59375-1.855469 3.847656-.519531.984375-1.089843 1.929687-1.648437 2.890625-.703125 1.207031-1.40625 2.398437-2.167969 3.566406-.617187.9375-1.261719 1.839844-1.917969 2.753906-.800781 1.117188-1.601562 2.230469-2.472656 3.300781-.695312.882813-1.425781 1.738282-2.160156 2.585938-.898438 1.03125-1.808594 2.039062-2.761719 3.03125-.800781.800781-1.597656 1.601562-2.398437 2.398438-.984376.945312-1.992188 1.859374-3.03125 2.753906-.847657.734375-1.707032 1.457031-2.59375 2.152344-1.070313.855468-2.175782 1.671874-3.296876 2.472656-.910156.648437-1.824218 1.292968-2.757812 1.902344-1.160156.761718-2.351562 1.464843-3.554688 2.160156-.964843.570312-1.925781 1.128906-2.917968 1.65625-1.25.648437-2.527344 1.238281-3.808594 1.832031-1 .464844-2 .9375-3.023438 1.359375-1.34375.554688-2.71875 1.023438-4.105468 1.503906-1.015625.351563-2.023438.738282-3.054688 1.050782-1.464844.4375-2.96875.796874-4.464844 1.148437-1 .242187-1.984374.523437-2.992187.722656-1.679687.335938-3.390625.558594-5.101563.800781-.875.109376-1.730468.285157-2.609374.375-2.609376.253907-5.257813.398438-7.929688.398438s-5.320312-.144531-7.925781-.398438c-.878907-.089843-1.738281-.265624-2.609375-.375-1.710938-.226562-3.421875-.449218-5.101563-.800781-1.007812-.199219-1.992187-.480469-2.992187-.722656-1.496094-.359375-3-.710937-4.464844-1.148437-1.03125-.3125-2.039062-.699219-3.066406-1.050782-1.375-.480468-2.75-.949218-4.09375-1.503906-1.023438-.421875-2.015625-.894531-3.023438-1.359375-1.28125-.59375-2.5625-1.183594-3.808594-1.839844-.992187-.519531-1.953124-1.078125-2.921874-1.648437-1.199219-.695313-2.398438-1.398438-3.550782-2.160156-.9375-.609376-1.847656-1.253907-2.761718-1.902344-1.117188-.800782-2.222657-1.601563-3.292969-2.472656-.890625-.695313-1.746094-1.417969-2.59375-2.152344-1.039063-.894532-2.046875-1.808594-3.03125-2.753906-.800781-.796876-1.601563-1.597657-2.398438-2.398438-.953125-.992188-1.867187-2-2.761719-3.03125-.734374-.847656-1.464843-1.703125-2.160156-2.585938-.855468-1.070312-1.671875-2.183593-2.472656-3.300781-.65625-.914062-1.304688-1.816406-1.917969-2.753906-.800781-1.160156-1.464843-2.359375-2.160156-3.558594-.5625-.960937-1.136719-1.914062-1.65625-2.898437-.664063-1.253906-1.257813-2.550782-1.855469-3.847656-.457031-.992188-.9375-1.96875-1.351562-2.976563-.5625-1.367187-1.042969-2.773437-1.539063-4.183594-.34375-.992187-.71875-1.96875-1.03125-2.976562-.464843-1.519531-.800781-3.085938-1.191406-4.644531-.230469-.9375-.503906-1.859376-.695313-2.800782-.386718-1.9375-.65625-3.914062-.898437-5.890625-.078125-.613281-.207031-1.207031-.269531-1.824219v-.070312h-104.089844l33.671875-120.113281c7.191406-23.613281 28.929687-39.789063 53.617187-39.886719h34.617188c2.835938 4.933594 8.089844 7.984375 13.78125 8h96c5.695312-.015625 10.949219-3.066406 13.785156-8h34.617188c24.648437.074219 46.375 16.191406 53.597656 39.761719l33.691406 120.238281zm0 0"/></svg>