<?xml version="1.0" encoding="iso-8859-1"?>
<!-- Generator: Adobe Illustrator 19.0.0, SVG Export Plug-In . SVG Version: 6.00 Build 0)  -->
<svg xmlns="http://www.w3.org/2000/svg" xmlns:xlink="http://www.w3.org/1999/xlink" version="1.1" id="Layer_1" x="0px" y="0px" viewBox="0 0 512 512" style="enable-background:new 0 0 512 512;" xml:space="preserve" width="512" height="512">
<path d="M466.856,190.61c-3.792-4.208-9.191-6.61-14.856-6.61H231c-5.665,0-11.064,2.402-14.856,6.61  c-3.793,4.208-5.623,9.827-5.036,15.462l27.199,261.108c2.661,25.552,24.041,44.82,49.73,44.82h106.926  c25.689,0,47.069-19.268,49.73-44.82c1.145-10.986-6.834-20.82-17.82-21.964c-10.991-1.14-20.82,6.834-21.965,17.821  c-0.532,5.11-4.808,8.963-9.945,8.963H288.037c-5.138,0-9.413-3.854-9.945-8.964L261.525,304h159.95l-7.18,68.928  c-1.145,10.986,6.834,20.82,17.82,21.964c10.984,1.15,20.82-6.834,21.965-17.82l17.813-171  C472.479,200.438,470.649,194.818,466.856,190.61z M257.358,264l-4.167-40h176.617l-4.167,40H257.358z M207,492  c0,11.046-8.954,20-20,20h-67c-44.112,0-80-35.888-80-80V282.55c0-42.112,14.062-83.748,39.596-117.237  C99.847,138.751,111,105.729,111,72.328V40h-5c-11.046,0-20-8.954-20-20s8.954-20,20-20h159c11.046,0,20,8.954,20,20  s-8.954,20-20,20h-5v34.375c0,15.189,2.249,30.257,6.685,44.784c3.226,10.564-2.723,21.743-13.287,24.969  c-1.946,0.594-3.914,0.877-5.848,0.877c-8.566,0-16.49-5.546-19.121-14.165C222.836,112.524,220,93.527,220,74.375V40h-69v32.328  c0,42.112-14.062,83.748-39.596,117.237C91.153,216.127,80,249.15,80,282.55V432c0,22.056,17.944,40,40,40h67  C198.046,472,207,480.954,207,492z"/>















</svg>
