<svg id="Capa_1" enable-background="new 0 0 509.289 509.289" height="512" viewBox="0 0 509.289 509.289" width="512" xmlns="http://www.w3.org/2000/svg"><path d="m390.963 365.442h-27.803c-.183-51.641-38.641-94.424-88.427-101.413v-28.305c6.17-3.367 11.976-7.465 17.277-12.267 16.518-14.96 26.826-35.413 29.018-57.512l13.104-119.418h8.597c11.094 0 20.119-9.025 20.119-20.118v-6.29c.001-11.094-9.024-20.119-20.118-20.119h-221.784c-11.093 0-20.118 9.025-20.118 20.118v6.29c0 11.093 9.025 20.118 20.118 20.118h8.598l13.096 119.34c2.2 22.177 12.508 42.629 29.025 57.59 5.301 4.801 11.107 8.9 17.278 12.267v28.305c-49.906 7.006-88.433 49.976-88.433 101.782v121.178c0 1.153.088 2.285.257 3.392 1.638 10.693 10.899 18.909 22.043 18.909h218.053c12.297 0 22.301-10.004 22.301-22.301v-38.132h27.798c9.823 0 17.815-7.992 17.815-17.815v-47.784c.002-9.824-7.991-17.815-17.814-17.815zm-275.135-339.034v-6.29c0-2.822 2.296-5.118 5.118-5.118h221.784c2.822 0 5.119 2.296 5.119 5.118v6.29c0 2.822-2.297 5.118-5.119 5.118h-15.319-191.146-15.32c-2.822.001-5.117-2.296-5.117-5.118zm41.729 137.9-6.546-59.653h15.431c4.142 0 7.5-3.358 7.5-7.5s-3.358-7.5-7.5-7.5h-17.077l-4.732-43.129h174.409l-4.732 43.129h-117.867c-4.142 0-7.5 3.358-7.5 7.5s3.358 7.5 7.5 7.5h116.222l-6.554 59.73c-3.805 38.35-35.734 67.27-74.272 67.27-38.539.001-70.47-28.919-74.282-67.347zm74.281 82.348c9.572 0 18.973-1.53 27.896-4.45v20.815h-55.791v-20.815c8.922 2.92 18.323 4.45 27.895 4.45zm116.327 240.332c0 4.026-3.275 7.301-7.301 7.301h-218.053c-3.774 0-6.889-2.878-7.263-6.555-.025-.245-.038-.494-.038-.745v-7.474h24.51c4.142 0 7.5-3.358 7.5-7.5s-3.358-7.5-7.5-7.5h-24.51v-98.705c0-48.407 39.382-87.79 87.79-87.79h57.077c48.407 0 87.789 39.382 87.789 87.79v7.131 68.414 23.159h-178.146c-4.142 0-7.5 3.358-7.5 7.5s3.358 7.5 7.5 7.5h178.145zm45.614-55.948c0 1.552-1.263 2.815-2.815 2.815h-27.798v-53.414h27.798c1.553 0 2.815 1.263 2.815 2.815z"/><path d="m184.182 345.306h95.312c4.142 0 7.5-3.358 7.5-7.5s-3.358-7.5-7.5-7.5h-95.312c-4.142 0-7.5 3.358-7.5 7.5s3.358 7.5 7.5 7.5z"/><path d="m184.182 317.467h95.312c4.142 0 7.5-3.358 7.5-7.5s-3.358-7.5-7.5-7.5h-95.312c-4.142 0-7.5 3.358-7.5 7.5s3.358 7.5 7.5 7.5z"/><path d="m231.838 447.817c30.413 0 55.155-24.743 55.155-55.156v-22.681c0-4.142-3.358-7.5-7.5-7.5h-95.312c-4.142 0-7.5 3.358-7.5 7.5v22.681c.001 30.413 24.744 55.156 55.157 55.156zm-40.156-70.337h80.312v15.181c0 22.142-18.014 40.156-40.155 40.156-22.142 0-40.156-18.014-40.156-40.156v-15.181z"/></svg>