<?xml version="1.0" standalone="no"?>
<!DOCTYPE svg PUBLIC "-//W3C//DTD SVG 20010904//EN"
 "http://www.w3.org/TR/2001/REC-SVG-20010904/DTD/svg10.dtd">
<svg version="1.0" xmlns="http://www.w3.org/2000/svg"
 width="1356.000000pt" height="822.000000pt" viewBox="0 0 1356.000000 822.000000"
 preserveAspectRatio="xMidYMid meet">
<metadata>
Created by potrace 1.15, written by Peter Selinger 2001-2017
</metadata>
<g transform="translate(0.000000,822.000000) scale(0.100000,-0.100000)"
fill="#000000" stroke="none">
<path d="M4045 5934 c-11 -3 -30 -7 -43 -10 -13 -2 -44 -23 -68 -46 -100 -92
-127 -216 -81 -361 23 -71 24 -79 9 -84 -57 -17 -71 -22 -112 -33 -85 -22
-235 -71 -277 -91 -24 -10 -47 -19 -53 -19 -6 0 -18 -4 -28 -9 -9 -6 -57 -29
-107 -52 -86 -41 -193 -107 -280 -173 -58 -44 -335 -320 -370 -369 -118 -164
-195 -304 -265 -482 -64 -163 -114 -446 -108 -615 l3 -95 70 0 70 0 11 70 c7
39 17 108 24 155 46 320 176 631 381 905 71 96 328 354 419 422 59 43 170 106
170 96 0 -3 -17 -20 -37 -37 -246 -204 -479 -527 -592 -821 -13 -33 -28 -71
-33 -85 -6 -14 -14 -34 -19 -45 -8 -20 -40 -128 -60 -200 -6 -22 -15 -51 -19
-65 -9 -28 -23 -93 -39 -186 -6 -33 -11 -95 -11 -137 l0 -77 1704 0 c1597 0
1704 1 1710 17 15 38 -7 314 -36 451 l-11 52 -132 0 c-73 0 -157 5 -186 10
-30 6 -187 15 -349 21 -162 6 -361 13 -442 16 -81 3 -158 3 -171 -1 -17 -4
-34 -26 -62 -82 -46 -94 -99 -148 -185 -192 l-65 -32 -419 2 -420 3 -7 28 c-4
15 -3 41 3 58 l10 29 313 0 312 0 7 41 c4 22 4 44 1 50 -4 5 -124 9 -288 10
-189 0 -295 5 -322 13 -37 11 -40 15 -40 46 0 55 23 58 463 59 l382 1 0 50 0
50 -403 0 c-348 0 -406 2 -425 16 -24 17 -29 56 -9 72 7 6 125 12 297 15 157
3 297 8 313 12 25 7 27 11 27 60 l0 53 -310 4 c-215 2 -313 6 -320 14 -16 16
-17 79 -1 98 12 14 58 16 389 16 366 0 394 -2 472 -33 124 -48 190 -117 241
-250 l22 -59 186 7 c178 6 533 19 856 30 83 4 154 10 158 14 23 23 -101 271
-190 381 -7 8 -35 44 -63 80 -201 256 -473 460 -777 581 -13 5 -33 13 -45 18
-13 5 -45 15 -73 21 -51 13 -214 64 -250 80 -11 4 -36 14 -55 21 -19 7 -56 26
-82 42 -40 25 -53 28 -90 23 -24 -4 -69 -9 -101 -12 -95 -9 -146 26 -177 123
-12 40 -11 46 10 89 14 25 40 59 59 75 30 25 44 29 93 29 63 0 84 -8 139 -57
21 -17 54 -39 75 -48 22 -9 47 -21 57 -26 15 -8 17 -4 17 25 0 69 -46 143
-119 192 -48 32 -60 36 -139 39 -48 2 -96 2 -107 -1z"/>
<path d="M3220 5840 c-169 -25 -278 -81 -411 -213 -62 -62 -85 -93 -121 -169
-25 -51 -51 -113 -57 -138 -7 -25 -17 -59 -22 -76 -5 -17 -9 -45 -9 -63 0 -18
-5 -41 -11 -53 -18 -33 -3 -32 58 6 59 36 113 47 113 23 0 -7 15 -28 34 -46
l34 -33 11 33 c6 17 11 42 11 55 0 13 4 33 9 46 5 13 15 43 22 68 47 165 155
318 260 367 50 23 142 55 210 73 49 12 163 9 318 -9 103 -12 121 -7 121 35 0
12 5 26 10 29 6 3 10 14 10 24 0 30 -79 42 -315 46 -121 2 -245 0 -275 -5z"/>
<path d="M4054 5752 c-20 -14 -54 -71 -54 -91 0 -25 43 -46 207 -100 112 -37
184 -63 228 -81 11 -5 106 -41 210 -80 105 -39 198 -75 207 -81 10 -5 27 -9
37 -9 11 0 23 -4 26 -10 3 -5 17 -10 30 -10 13 0 26 -4 29 -9 3 -5 20 -11 38
-14 18 -2 116 -25 218 -51 102 -25 204 -50 228 -56 23 -5 124 -10 224 -10 176
0 182 1 225 25 23 14 43 29 43 33 0 17 -26 32 -56 32 -42 0 -60 19 -68 72 -10
67 -19 75 -51 50 -61 -48 -233 -77 -311 -53 -16 5 -60 14 -99 21 -38 6 -86 16
-105 21 -182 45 -190 47 -290 77 -73 22 -193 64 -320 112 -47 17 -121 45 -165
62 -103 39 -287 105 -345 124 -25 8 -52 19 -61 23 -9 5 -20 6 -25 3z"/>
<path d="M7520 5240 c-27 -29 -40 -73 -40 -142 0 -21 -9 -56 -21 -78 -21 -39
-21 -41 -3 -66 42 -60 44 -66 44 -231 0 -89 3 -168 6 -177 9 -23 119 -23 128
0 3 8 9 99 13 201 l6 185 31 19 c61 36 63 40 25 71 -18 15 -43 28 -56 28 -28
0 -36 13 -28 50 6 28 9 30 56 30 l49 0 0 43 c0 23 -7 50 -14 60 -17 22 -67 37
-124 37 -36 0 -49 -6 -72 -30z"/>
<path d="M6725 5250 c-10 -17 -17 -508 -8 -605 8 -90 8 -90 37 -93 64 -8 81
22 101 168 14 101 18 116 33 133 12 14 48 24 54 15 0 -2 4 -68 7 -148 l6 -145
68 -3 67 -3 0 71 c0 38 2 70 5 70 3 0 15 -8 25 -18 60 -56 138 -74 209 -50 83
29 96 41 96 89 l0 44 -41 3 c-32 2 -48 -2 -72 -22 -35 -30 -48 -32 -69 -11
-12 12 -13 19 -3 30 7 8 19 15 26 15 7 0 37 11 67 24 45 21 55 31 66 63 7 21
11 53 9 72 -6 65 -117 100 -213 67 -53 -19 -82 -56 -109 -139 -4 -14 -13 -9
-48 29 l-43 46 -61 -5 -61 -6 -7 151 c-4 84 -9 155 -12 160 -7 12 -122 10
-129 -2z"/>
<path d="M7990 5168 c0 -75 -4 -99 -20 -125 -11 -18 -24 -33 -30 -33 -13 0
-13 -25 -1 -48 20 -36 31 -115 31 -216 0 -93 3 -111 24 -148 l24 -43 91 -3 90
-3 11 43 c6 24 13 49 15 55 5 15 -44 43 -74 43 -10 0 -21 -6 -24 -12 -2 -7 -8
-10 -12 -6 -11 10 14 269 27 285 6 7 23 13 39 13 l29 0 0 -85 c0 -121 22 -204
67 -254 20 -23 26 -24 101 -18 61 4 85 2 101 -10 13 -8 38 -13 64 -11 l42 3 0
205 0 205 -41 3 c-29 2 -47 -3 -67 -18 -27 -21 -27 -22 -27 -149 0 -85 -4
-131 -12 -139 -7 -7 -29 -12 -49 -12 -33 0 -37 3 -43 31 -3 17 -6 80 -6 139 0
125 -5 133 -71 124 -41 -6 -46 -4 -57 20 -8 18 -19 26 -36 26 -32 0 -37 17
-45 130 l-6 95 -67 3 -68 3 0 -93z"/>
<path d="M8665 4888 c-3 -112 -3 -275 2 -363 l8 -160 39 -3 c84 -7 86 -5 86
112 0 56 3 137 6 178 l7 75 68 13 c38 7 82 21 99 31 28 18 30 22 30 82 0 56
-3 66 -28 90 -23 22 -37 26 -101 29 -54 2 -76 7 -81 18 -44 96 -43 95 -86 98
l-42 3 -7 -203z"/>
<path d="M6459 4901 c-82 -55 -91 -65 -100 -117 -19 -122 56 -214 175 -214 77
0 126 21 142 60 8 18 14 43 14 56 0 22 -4 24 -42 24 -27 0 -52 -8 -68 -20 -14
-11 -39 -20 -55 -20 -26 0 -32 5 -43 40 -18 59 -15 88 13 115 20 21 34 25 80
25 47 0 55 3 55 19 0 24 -15 35 -66 49 -55 16 -54 16 -105 -17z"/>
<path d="M7789 4888 c-7 -12 -14 -54 -16 -93 -4 -78 -22 -175 -35 -189 -12
-14 -10 -50 4 -64 7 -7 36 -12 64 -12 77 0 86 21 85 213 0 81 -3 152 -6 157
-3 6 -24 10 -45 10 -30 0 -42 -5 -51 -22z"/>
<path d="M9009 4196 c-23 -11 -54 -40 -70 -63 -26 -37 -29 -50 -29 -116 0 -86
15 -123 68 -167 31 -25 45 -30 93 -30 46 0 62 5 92 28 42 32 54 52 62 108 6
39 5 42 -20 48 -37 9 -112 -3 -126 -20 -10 -12 -6 -17 20 -27 41 -15 39 -36
-5 -67 l-37 -24 -26 31 c-27 33 -51 96 -51 137 0 32 33 107 54 125 16 13 70
11 109 -4 10 -4 17 -3 17 5 0 20 -23 36 -67 47 -36 9 -47 8 -84 -11z"/>
<path d="M10061 4180 c-13 -39 -26 -258 -17 -304 6 -29 11 -36 29 -36 20 0 24
8 35 78 7 42 12 89 12 103 0 35 8 41 36 23 16 -11 40 -15 76 -12 l53 3 3 -107
3 -108 44 0 c40 0 45 2 45 23 0 13 -4 27 -9 33 -10 10 -18 78 -27 227 -5 84
-8 97 -24 97 -20 0 -70 -37 -70 -51 0 -38 -78 -54 -87 -19 -3 11 -9 20 -14 20
-5 0 -9 6 -9 13 0 7 -15 21 -34 30 l-34 16 -11 -29z"/>
<path d="M6416 4167 c-62 -81 -72 -176 -27 -265 25 -50 35 -60 69 -70 79 -24
131 -11 184 45 25 26 53 108 42 125 -9 14 -83 9 -122 -8 l-37 -16 33 -16 c37
-18 38 -23 16 -57 -12 -18 -25 -25 -49 -25 -31 0 -36 5 -62 57 -35 73 -34 114
5 197 l31 66 -29 0 c-21 0 -36 -9 -54 -33z"/>
<path d="M7256 4128 c-3 -40 -4 -118 -2 -172 4 -84 8 -103 26 -120 33 -34 40
-7 39 159 -1 171 -6 199 -36 203 -19 3 -21 -3 -27 -70z"/>
<path d="M7510 4009 l0 -190 22 3 c19 3 25 14 38 73 15 68 17 71 58 89 50 23
50 37 -2 49 -26 7 -40 17 -47 34 -21 56 -3 76 81 89 22 4 40 10 40 13 0 22
-31 31 -107 31 l-83 0 0 -191z"/>
<path d="M9810 4096 c0 -115 0 -115 -72 -139 -54 -18 -62 -13 -72 43 -3 19
-20 50 -37 67 -30 33 -30 33 -62 17 -18 -10 -46 -28 -63 -40 -37 -29 -50 -30
-64 -5 -32 61 -73 66 -130 15 -33 -30 -40 -43 -40 -73 1 -62 53 -107 107 -92
62 18 93 40 94 69 l1 27 8 -27 c19 -62 56 -79 137 -61 l63 15 36 -32 c34 -29
37 -30 49 -13 8 10 9 20 4 21 -16 6 -10 41 10 51 23 13 31 -2 31 -58 0 -31 5
-40 25 -49 14 -7 30 -12 35 -12 6 0 10 76 10 190 l0 190 -35 0 -35 0 0 -104z"/>
<path d="M10969 4118 c0 -102 -12 -224 -22 -234 -4 -5 -18 3 -30 15 -15 16
-18 25 -9 28 16 6 15 21 -1 38 -11 11 -19 8 -45 -15 -55 -47 -38 -76 58 -103
36 -10 78 -21 93 -24 l29 -6 -6 124 c-3 68 -8 154 -12 192 -5 63 -7 67 -30 67
-23 0 -24 -2 -25 -82z"/>
<path d="M6977 4050 c-25 -22 -48 -40 -52 -40 -3 0 -18 14 -32 30 -20 25 -32
30 -68 30 -37 0 -49 -6 -78 -35 -32 -33 -34 -38 -24 -68 5 -18 12 -38 13 -45
2 -7 20 -20 39 -28 33 -13 39 -13 84 6 l48 21 61 -20 c95 -32 141 -6 142 81 0
39 -5 52 -31 77 -17 17 -36 31 -43 31 -7 0 -34 -18 -59 -40z"/>
<path d="M8614 4076 c-57 -25 -50 -77 15 -117 39 -24 40 -39 2 -39 -17 0 -32
-4 -36 -9 -10 -16 31 -31 84 -31 l51 0 0 39 c0 45 -11 56 -53 53 -18 -2 -27 2
-26 10 1 7 -1 21 -5 31 -5 9 -5 24 -2 33 6 15 8 15 26 -1 11 -10 20 -25 20
-33 0 -12 3 -12 16 -2 9 8 14 25 12 44 -3 28 -7 31 -38 33 -19 2 -49 -3 -66
-11z"/>
<path d="M7722 4043 c-29 -36 -28 -80 3 -126 29 -42 37 -44 91 -21 59 24 74
42 74 86 0 57 -34 88 -98 88 -41 0 -52 -4 -70 -27z"/>
<path d="M7937 4042 c-21 -22 -27 -38 -27 -74 0 -44 1 -46 45 -67 36 -17 50
-19 72 -10 72 27 94 91 52 150 -18 25 -27 29 -68 29 -39 0 -52 -5 -74 -28z"/>
<path d="M10452 4049 c-12 -12 -23 -43 -27 -71 -8 -58 0 -71 56 -86 30 -8 44
-6 85 14 56 27 73 29 80 10 3 -7 22 -19 43 -26 33 -10 42 -10 72 5 19 10 39
25 46 34 16 21 16 80 1 115 -12 25 -17 27 -56 23 -24 -3 -65 -18 -91 -35 l-48
-30 -14 32 c-13 29 -18 31 -71 34 -47 2 -60 -1 -76 -19z"/>
<path d="M8191 3974 c-85 -24 -104 -57 -54 -100 25 -21 29 -22 45 -7 14 12 15
20 6 36 -8 16 -7 23 8 34 28 20 34 16 34 -24 0 -22 10 -55 24 -77 21 -36 24
-38 34 -20 17 33 24 85 17 130 -6 40 -9 44 -33 43 -15 0 -51 -7 -81 -15z"/>
<path d="M2315 3371 l-39 -6 2 -55 c2 -30 8 -67 14 -82 l10 -28 1752 1 c963 1
1792 4 1841 8 l90 6 0 80 0 80 -1815 1 c-998 1 -1833 -2 -1855 -5z"/>
</g>
</svg>
